<?xml version="1.0" encoding="UTF-8"?>
<svg version="1.1" xmlns="http://www.w3.org/2000/svg" width="281" height="229">
<path d="M0 0 C92.73 0 185.46 0 281 0 C281 75.57 281 151.14 281 229 C188.27 229 95.54 229 0 229 C0 153.43 0 77.86 0 0 Z " fill="#FBFBFB" transform="translate(0,0)"/>
<path d="M0 0 C2.9717557 4.14316204 4.34313967 8.61835687 5.8125 13.4375 C6.06749268 14.26443359 6.32248535 15.09136719 6.58520508 15.94335938 C7.40312547 18.62519691 8.20448709 21.31143439 9 24 C9.26780273 24.90121582 9.53560547 25.80243164 9.81152344 26.73095703 C14.88486658 43.99569748 18.79690612 60.90727955 18 79 C18.71027344 78.98839844 19.42054688 78.97679687 20.15234375 78.96484375 C21.07144531 78.95582031 21.99054688 78.94679688 22.9375 78.9375 C23.85402344 78.92589844 24.77054688 78.91429687 25.71484375 78.90234375 C28 79 28 79 29 80 C29 81.65 29 83.3 29 85 C25.37 85 21.74 85 18 85 C17.34 88.63 16.68 92.26 16 96 C17.093125 95.95875 18.18625 95.9175 19.3125 95.875 C23 96 23 96 26 98 C25.67 99.32 25.34 100.64 25 102 C23.3745692 101.85904936 21.74965949 101.71207913 20.125 101.5625 C18.76761719 101.44068359 18.76761719 101.44068359 17.3828125 101.31640625 C15 101 15 101 13 100 C12.814375 100.66 12.62875 101.32 12.4375 102 C10.3544141 106.3473097 7.26505931 109.49308444 4 113 C3.49726563 113.59039062 2.99453125 114.18078125 2.4765625 114.7890625 C-7.12203455 125.45958409 -23.24413107 132.21373394 -37.40917969 133.16113281 C-68.62945223 133.6828863 -68.62945223 133.6828863 -79.53611755 127.46868896 C-85.21557999 124.59851301 -90.02581734 124.29240547 -96.30883789 124.35644531 C-97.3913382 124.3475679 -98.4738385 124.33869049 -99.58914185 124.32954407 C-103.1339662 124.30601845 -106.67778632 124.31701462 -110.22265625 124.328125 C-112.69462657 124.3175403 -115.16658791 124.30462678 -117.63853455 124.28948975 C-124.12034438 124.25536912 -130.60185283 124.24990522 -137.08374023 124.25140381 C-146.25017468 124.24816966 -155.41652653 124.20557252 -164.58287048 124.16766357 C-169.46178635 124.14759803 -174.34054225 124.13831365 -179.21949768 124.13751221 C-181.43156946 124.13369427 -183.6436412 124.1298505 -185.85571289 124.12597656 C-186.87433914 124.12807632 -187.89296539 124.13017609 -188.94245911 124.13233948 C-189.86335327 124.12977646 -190.78424744 124.12721344 -191.73304749 124.12457275 C-192.94001077 124.12463507 -192.94001077 124.12463507 -194.17135715 124.12469864 C-196 124 -196 124 -197 123 C-197.08685603 121.43827255 -197.10702219 119.87270656 -197.09765625 118.30859375 C-197.09443359 117.36435547 -197.09121094 116.42011719 -197.08789062 115.44726562 C-197.07951172 114.45404297 -197.07113281 113.46082031 -197.0625 112.4375 C-197.05798828 111.44041016 -197.05347656 110.44332031 -197.04882812 109.41601562 C-197.03700007 106.94395151 -197.02051849 104.47200482 -197 102 C-193.535 101.01 -193.535 101.01 -190 100 C-189.67 105.28 -189.34 110.56 -189 116 C-158.97 116 -128.94 116 -98 116 C-100.31 113.36 -102.62 110.72 -105 108 C-106.39845282 105.70510307 -107.75858855 103.38350998 -109 101 C-109.89203125 101.34933594 -110.7840625 101.69867188 -111.703125 102.05859375 C-112.87359375 102.51363281 -114.0440625 102.96867187 -115.25 103.4375 C-116.41015625 103.88996094 -117.5703125 104.34242188 -118.765625 104.80859375 C-121.18966308 105.70150633 -123.48286475 106.45794365 -126 107 C-126.33 105.68 -126.66 104.36 -127 103 C-124.10357159 100.64917788 -121.34643669 99.16480594 -117.875 97.8125 C-117.00617188 97.46832031 -116.13734375 97.12414062 -115.2421875 96.76953125 C-113 96 -113 96 -111 96 C-111.495 92.535 -111.495 92.535 -112 89 C-113.05960937 89.01160156 -114.11921875 89.02320313 -115.2109375 89.03515625 C-116.59895658 89.04453476 -117.98697755 89.05363489 -119.375 89.0625 C-120.07367188 89.07087891 -120.77234375 89.07925781 -121.4921875 89.08789062 C-126.7734375 89.11328125 -126.7734375 89.11328125 -129 88 C-128.505 86.02 -128.505 86.02 -128 84 C-123.05 84 -118.1 84 -113 84 C-113 79.71 -113 75.42 -113 71 C-114.7015625 71.185625 -114.7015625 71.185625 -116.4375 71.375 C-122.16458823 71.31450259 -125.86479867 68.80466653 -130 65 C-132.43871624 62.00813124 -134.6935491 58.92903546 -136.9375 55.7890625 C-140.1151229 51.49204971 -142.86539684 48.75600529 -148 46.9375 C-152.07257892 47.02234539 -153.77337463 48.56566304 -157 51 C-159.1963033 53.37252921 -159.1963033 53.37252921 -161.125 56.125 C-161.88941406 57.176875 -162.65382812 58.22875 -163.44140625 59.3125 C-166.39864814 63.52747306 -169.22606186 67.82827037 -172.0625 72.125 C-184.20904702 90.51801455 -184.20904702 90.51801455 -191 94 C-193.8125 94.1875 -193.8125 94.1875 -196 94 C-196.33 92.68 -196.66 91.36 -197 90 C-196.52691406 89.70609375 -196.05382812 89.4121875 -195.56640625 89.109375 C-186.45195712 82.92647383 -180.92673075 73.45913668 -174.9375 64.4375 C-174.5161377 63.80408691 -174.09477539 63.17067383 -173.66064453 62.51806641 C-173.24540527 61.89335449 -172.83016602 61.26864258 -172.40234375 60.625 C-171.99612793 60.01398438 -171.58991211 59.40296875 -171.17138672 58.7734375 C-170.0838401 57.1269309 -169.01194814 55.47011325 -167.94140625 53.8125 C-162.88490771 46.32440559 -157.49025825 41.15584384 -148.4375 39.25 C-138.89283283 41.33247284 -133.55461579 48.49639621 -128 56 C-124.09314815 61.07059496 -121.69591113 63.55068148 -115.25 64.625 C-114.1775 64.74875 -113.105 64.8725 -112 65 C-111.88785156 63.72898437 -111.77570313 62.45796875 -111.66015625 61.1484375 C-109.66727429 43.39619162 -103.10151489 19.67221299 -91 6 C-87.84905867 3.89937245 -86.7775634 3.65686714 -83.125 3.5625 C-82.28195313 3.52253906 -81.43890625 3.48257813 -80.5703125 3.44140625 C-75.41179284 4.56248271 -72.91228322 9.00320035 -70.140625 13.171875 C-69.1706648 14.69384508 -68.20722493 16.21998819 -67.25 17.75 C-66.27696336 19.28704221 -65.30305198 20.82353112 -64.328125 22.359375 C-63.9043457 23.03452148 -63.48056641 23.70966797 -63.04394531 24.40527344 C-62.09553327 25.97257686 -62.09553327 25.97257686 -61 27 C-56.97591258 27.52642419 -52.92502721 27.70419306 -48.875 27.9375 C-47.74578125 28.03095703 -46.6165625 28.12441406 -45.453125 28.22070312 C-38.26057705 28.68264237 -38.26057705 28.68264237 -32.06640625 25.5 C-30.44642281 23.84881406 -30.44642281 23.84881406 -29 22 C-28.49726563 21.37875244 -27.99453125 20.75750488 -27.4765625 20.11743164 C-25.95178193 18.13298914 -24.50338832 16.108494 -23.0625 14.0625 C-13.12605967 0.40145101 -13.12605967 0.40145101 -6.94140625 -1.69921875 C-4.05489616 -2.14642454 -2.522198 -1.42277836 0 0 Z " fill="#F2A564" transform="translate(227,69)"/>
<path d="M0 0 C2.9717557 4.14316204 4.34313967 8.61835687 5.8125 13.4375 C6.06749268 14.26443359 6.32248535 15.09136719 6.58520508 15.94335938 C7.40312547 18.62519691 8.20448709 21.31143439 9 24 C9.26780273 24.90121582 9.53560547 25.80243164 9.81152344 26.73095703 C14.88486658 43.99569748 18.79690612 60.90727955 18 79 C18.71027344 78.98839844 19.42054688 78.97679687 20.15234375 78.96484375 C21.07144531 78.95582031 21.99054688 78.94679688 22.9375 78.9375 C23.85402344 78.92589844 24.77054688 78.91429687 25.71484375 78.90234375 C28 79 28 79 29 80 C29 81.65 29 83.3 29 85 C25.37 85 21.74 85 18 85 C17.34 88.63 16.68 92.26 16 96 C17.093125 95.95875 18.18625 95.9175 19.3125 95.875 C23 96 23 96 26 98 C25.67 99.32 25.34 100.64 25 102 C23.3745692 101.85904936 21.74965949 101.71207913 20.125 101.5625 C18.76761719 101.44068359 18.76761719 101.44068359 17.3828125 101.31640625 C15 101 15 101 13 100 C12.814375 100.66 12.62875 101.32 12.4375 102 C10.3544141 106.3473097 7.26505931 109.49308444 4 113 C3.49726563 113.59039062 2.99453125 114.18078125 2.4765625 114.7890625 C-7.12203455 125.45958409 -23.24413107 132.21373394 -37.40917969 133.16113281 C-68.62945223 133.6828863 -68.62945223 133.6828863 -79.53611755 127.46868896 C-85.21557999 124.59851301 -90.02581734 124.29240547 -96.30883789 124.35644531 C-97.3913382 124.3475679 -98.4738385 124.33869049 -99.58914185 124.32954407 C-103.1339662 124.30601845 -106.67778632 124.31701462 -110.22265625 124.328125 C-112.69462657 124.3175403 -115.16658791 124.30462678 -117.63853455 124.28948975 C-124.12034438 124.25536912 -130.60185283 124.24990522 -137.08374023 124.25140381 C-146.25017468 124.24816966 -155.41652653 124.20557252 -164.58287048 124.16766357 C-169.46178635 124.14759803 -174.34054225 124.13831365 -179.21949768 124.13751221 C-181.43156946 124.13369427 -183.6436412 124.1298505 -185.85571289 124.12597656 C-186.87433914 124.12807632 -187.89296539 124.13017609 -188.94245911 124.13233948 C-189.86335327 124.12977646 -190.78424744 124.12721344 -191.73304749 124.12457275 C-192.94001077 124.12463507 -192.94001077 124.12463507 -194.17135715 124.12469864 C-196 124 -196 124 -197 123 C-197.08685603 121.43827255 -197.10702219 119.87270656 -197.09765625 118.30859375 C-197.09443359 117.36435547 -197.09121094 116.42011719 -197.08789062 115.44726562 C-197.07951172 114.45404297 -197.07113281 113.46082031 -197.0625 112.4375 C-197.05798828 111.44041016 -197.05347656 110.44332031 -197.04882812 109.41601562 C-197.03700007 106.94395151 -197.02051849 104.47200482 -197 102 C-193.535 101.01 -193.535 101.01 -190 100 C-189.67 105.28 -189.34 110.56 -189 116 C-158.97 116 -128.94 116 -98 116 C-100.31 113.36 -102.62 110.72 -105 108 C-106.39845282 105.70510307 -107.75858855 103.38350998 -109 101 C-109.89203125 101.34933594 -110.7840625 101.69867188 -111.703125 102.05859375 C-112.87359375 102.51363281 -114.0440625 102.96867187 -115.25 103.4375 C-116.41015625 103.88996094 -117.5703125 104.34242188 -118.765625 104.80859375 C-121.18966308 105.70150633 -123.48286475 106.45794365 -126 107 C-126.33 105.68 -126.66 104.36 -127 103 C-124.10357159 100.64917788 -121.34643669 99.16480594 -117.875 97.8125 C-117.00617188 97.46832031 -116.13734375 97.12414062 -115.2421875 96.76953125 C-113 96 -113 96 -111 96 C-111.495 92.535 -111.495 92.535 -112 89 C-113.05960937 89.01160156 -114.11921875 89.02320313 -115.2109375 89.03515625 C-116.59895658 89.04453476 -117.98697755 89.05363489 -119.375 89.0625 C-120.07367188 89.07087891 -120.77234375 89.07925781 -121.4921875 89.08789062 C-126.7734375 89.11328125 -126.7734375 89.11328125 -129 88 C-128.505 86.02 -128.505 86.02 -128 84 C-123.05 84 -118.1 84 -113 84 C-113 79.71 -113 75.42 -113 71 C-114.7015625 71.185625 -114.7015625 71.185625 -116.4375 71.375 C-122.16458823 71.31450259 -125.86479867 68.80466653 -130 65 C-132.43871624 62.00813124 -134.6935491 58.92903546 -136.9375 55.7890625 C-140.1151229 51.49204971 -142.86539684 48.75600529 -148 46.9375 C-152.07257892 47.02234539 -153.77337463 48.56566304 -157 51 C-159.1963033 53.37252921 -159.1963033 53.37252921 -161.125 56.125 C-161.88941406 57.176875 -162.65382812 58.22875 -163.44140625 59.3125 C-166.39864814 63.52747306 -169.22606186 67.82827037 -172.0625 72.125 C-184.20904702 90.51801455 -184.20904702 90.51801455 -191 94 C-193.8125 94.1875 -193.8125 94.1875 -196 94 C-196.33 92.68 -196.66 91.36 -197 90 C-196.52691406 89.70609375 -196.05382812 89.4121875 -195.56640625 89.109375 C-186.45195712 82.92647383 -180.92673075 73.45913668 -174.9375 64.4375 C-174.5161377 63.80408691 -174.09477539 63.17067383 -173.66064453 62.51806641 C-173.24540527 61.89335449 -172.83016602 61.26864258 -172.40234375 60.625 C-171.99612793 60.01398438 -171.58991211 59.40296875 -171.17138672 58.7734375 C-170.0838401 57.1269309 -169.01194814 55.47011325 -167.94140625 53.8125 C-162.88490771 46.32440559 -157.49025825 41.15584384 -148.4375 39.25 C-138.89283283 41.33247284 -133.55461579 48.49639621 -128 56 C-124.09314815 61.07059496 -121.69591113 63.55068148 -115.25 64.625 C-114.1775 64.74875 -113.105 64.8725 -112 65 C-111.88785156 63.72898437 -111.77570313 62.45796875 -111.66015625 61.1484375 C-109.66727429 43.39619162 -103.10151489 19.67221299 -91 6 C-87.84905867 3.89937245 -86.7775634 3.65686714 -83.125 3.5625 C-82.28195313 3.52253906 -81.43890625 3.48257813 -80.5703125 3.44140625 C-75.41179284 4.56248271 -72.91228322 9.00320035 -70.140625 13.171875 C-69.1706648 14.69384508 -68.20722493 16.21998819 -67.25 17.75 C-66.27696336 19.28704221 -65.30305198 20.82353112 -64.328125 22.359375 C-63.9043457 23.03452148 -63.48056641 23.70966797 -63.04394531 24.40527344 C-62.09553327 25.97257686 -62.09553327 25.97257686 -61 27 C-56.97591258 27.52642419 -52.92502721 27.70419306 -48.875 27.9375 C-47.74578125 28.03095703 -46.6165625 28.12441406 -45.453125 28.22070312 C-38.26057705 28.68264237 -38.26057705 28.68264237 -32.06640625 25.5 C-30.44642281 23.84881406 -30.44642281 23.84881406 -29 22 C-28.49726563 21.37875244 -27.99453125 20.75750488 -27.4765625 20.11743164 C-25.95178193 18.13298914 -24.50338832 16.108494 -23.0625 14.0625 C-13.12605967 0.40145101 -13.12605967 0.40145101 -6.94140625 -1.69921875 C-4.05489616 -2.14642454 -2.522198 -1.42277836 0 0 Z M-7 7 C-18.33669495 18.14984388 -18.33669495 18.14984388 -26.96484375 31.15625 C-28.33004665 33.58785668 -29.40937234 33.98969079 -32 35 C-34.80566406 35.25878906 -34.80566406 35.25878906 -38.015625 35.265625 C-39.18480469 35.26820312 -40.35398437 35.27078125 -41.55859375 35.2734375 C-43.38583984 35.26183594 -43.38583984 35.26183594 -45.25 35.25 C-47.05404297 35.26160156 -47.05404297 35.26160156 -48.89453125 35.2734375 C-64.68236191 35.23877706 -64.68236191 35.23877706 -69.06640625 31.00390625 C-69.56011719 30.19824219 -70.05382812 29.39257812 -70.5625 28.5625 C-71.12839844 27.67820312 -71.69429687 26.79390625 -72.27734375 25.8828125 C-73.46152744 23.90111734 -74.64095697 21.91657596 -75.81640625 19.9296875 C-76.41324219 18.94226563 -77.01007813 17.95484375 -77.625 16.9375 C-78.15351563 16.01839844 -78.68203125 15.09929687 -79.2265625 14.15234375 C-80.85440768 11.76897127 -80.85440768 11.76897127 -83.7109375 11.19140625 C-84.46632813 11.12824219 -85.22171875 11.06507812 -86 11 C-90.02606438 17.03200843 -92.89991614 23.05228196 -95.5 29.8125 C-95.88800781 30.8128125 -96.27601563 31.813125 -96.67578125 32.84375 C-102.01660446 46.93709285 -106.24287452 61.27216534 -106.0625 76.4375 C-106.05798828 77.16904297 -106.05347656 77.90058594 -106.04882812 78.65429688 C-106.03718148 80.43623419 -106.01925191 82.21812863 -106 84 C-104.865625 84.433125 -103.73125 84.86625 -102.5625 85.3125 C-101.386875 85.869375 -100.21125 86.42625 -99 87 C-98.67 87.99 -98.34 88.98 -98 90 C-99.98 90 -101.96 90 -104 90 C-103.67 91.65 -103.34 93.3 -103 95 C-101.02 95 -99.04 95 -97 95 C-98 98 -98 98 -100 99 C-96.15091487 110.06851347 -84.54507391 116.44270567 -74.5 121.3125 C-57.24316247 128.34193181 -35.032473 126.93329291 -18 120 C-14.38817334 118.29466918 -11.19098159 116.39629269 -8 114 C-7.34773438 113.5153125 -6.69546875 113.030625 -6.0234375 112.53125 C-1.84204032 109.18613226 1.13317183 105.5174262 4 101 C4 100.34 4 99.68 4 99 C2.56445975 98.49440092 1.1264798 97.9957251 -0.3125 97.5 C-1.11300781 97.2215625 -1.91351563 96.943125 -2.73828125 96.65625 C-5.08769422 95.86066893 -5.08769422 95.86066893 -8 96 C-8 94.68 -8 93.36 -8 92 C-2.72 92.66 2.56 93.32 8 94 C10.372678 90 10.372678 90 10 85 C5.38 85 0.76 85 -4 85 C-4 83.68 -4 82.36 -4 81 C0.95 80.67 5.9 80.34 11 80 C11.34156039 59.74747783 5.82527543 40.12156562 -0.65625 21.07421875 C-1.92625003 17.33285594 -2.7259239 13.6444566 -3.375 9.75 C-3.684375 8.88375 -3.684375 8.88375 -4 8 C-4.99 7.67 -5.98 7.34 -7 7 Z " fill="#242C32" transform="translate(227,69)"/>
<path d="M0 0 C5.30427843 3.47637698 8.89313648 8.08284123 12.5625 13.1875 C16.52456201 18.6149822 19.39371631 22.08037092 26.2109375 23.44140625 C28.1312317 23.70755229 30.06610605 23.86428814 32 24 C32 28.29 32 32.58 32 37 C27.05 37.33 22.1 37.66 17 38 C16.67 38.99 16.34 39.98 16 41 C21.61 41.33 27.22 41.66 33 42 C33.495 45.465 33.495 45.465 34 49 C33.00097656 49.38671875 32.00195312 49.7734375 30.97265625 50.171875 C29.66894589 50.69711083 28.36557785 51.2231969 27.0625 51.75 C26.40314453 52.00265625 25.74378906 52.2553125 25.06445312 52.515625 C21.25289617 53.96979865 21.25289617 53.96979865 19.05859375 57.203125 C19.02958984 58.09257812 19.02958984 58.09257812 19 59 C22.73654172 58.19534869 26.19422782 56.82425115 29.75 55.4375 C30.92046875 54.98246094 32.0909375 54.52742188 33.296875 54.05859375 C34.18890625 53.70925781 35.0809375 53.35992187 36 53 C36.79664062 54.21236328 36.79664062 54.21236328 37.609375 55.44921875 C38.31578125 56.51785156 39.0221875 57.58648437 39.75 58.6875 C40.44609375 59.74324219 41.1421875 60.79898438 41.859375 61.88671875 C43.79669796 64.70432167 45.85008625 67.34410838 48 70 C36.02196441 70.0231219 24.04393409 70.0409143 12.06588078 70.05181217 C6.50460589 70.05704134 0.94334621 70.06413958 -4.61791992 70.07543945 C-9.98007419 70.08626715 -15.34221378 70.09227658 -20.70437813 70.09487724 C-22.75500278 70.09673171 -24.8056266 70.10035272 -26.85624504 70.10573006 C-29.71790203 70.11293893 -32.57949757 70.11399101 -35.44116211 70.11352539 C-36.29783478 70.11712067 -37.15450745 70.12071594 -38.03713989 70.12442017 C-43.88594784 70.11405216 -43.88594784 70.11405216 -45 69 C-46.53870233 55.67515507 -46.53870233 55.67515507 -43.4609375 50.32421875 C-42.10484422 48.89220519 -40.69766633 47.50701128 -39.24609375 46.171875 C-35.33582103 42.39081129 -32.77687664 37.64259063 -30 33 C-30.66 33 -31.32 33 -32 33 C-30.01770128 27.65113541 -27.03622055 23.35771523 -23.8125 18.6875 C-23.26013672 17.87087891 -22.70777344 17.05425781 -22.13867188 16.21289062 C-8.99766183 -2.94154329 -8.99766183 -2.94154329 0 0 Z " fill="#FAFAFA" transform="translate(82,116)"/>
<path d="M0 0 C0.33 0 0.66 0 1 0 C1.99 4.95 1.99 4.95 3 10 C3.66 9.67 4.32 9.34 5 9 C6.76462683 12.08809695 7 13.23312136 7 17 C8.17369141 16.98259766 8.17369141 16.98259766 9.37109375 16.96484375 C10.38300781 16.95582031 11.39492187 16.94679687 12.4375 16.9375 C13.44683594 16.92589844 14.45617187 16.91429687 15.49609375 16.90234375 C18 17 18 17 19 18 C19 19.65 19 21.3 19 23 C15.37 23 11.74 23 8 23 C7.34 26.63 6.68 30.26 6 34 C7.6396875 33.938125 7.6396875 33.938125 9.3125 33.875 C13 34 13 34 16 36 C15.67 37.32 15.34 38.64 15 40 C13.3745692 39.85904936 11.74965949 39.71207913 10.125 39.5625 C9.22007812 39.48128906 8.31515625 39.40007812 7.3828125 39.31640625 C5 39 5 39 3 38 C2.814375 38.66 2.62875 39.32 2.4375 40 C0.3544141 44.3473097 -2.73494069 47.49308444 -6 51 C-6.50273437 51.59039062 -7.00546875 52.18078125 -7.5234375 52.7890625 C-17.12203455 63.45958409 -33.24413107 70.21373394 -47.40917969 71.16113281 C-78.62945223 71.6828863 -78.62945223 71.6828863 -89.53611755 65.46868896 C-95.21557999 62.59851301 -100.02581734 62.29240547 -106.30883789 62.35644531 C-107.3913382 62.3475679 -108.4738385 62.33869049 -109.58914185 62.32954407 C-113.1339662 62.30601845 -116.67778632 62.31701462 -120.22265625 62.328125 C-122.69462657 62.3175403 -125.16658791 62.30462678 -127.63853455 62.28948975 C-134.12034438 62.25536912 -140.60185283 62.24990522 -147.08374023 62.25140381 C-156.25017468 62.24816966 -165.41652653 62.20557252 -174.58287048 62.16766357 C-179.46178635 62.14759803 -184.34054225 62.13831365 -189.21949768 62.13751221 C-191.43156946 62.13369427 -193.6436412 62.1298505 -195.85571289 62.12597656 C-196.87433914 62.12807632 -197.89296539 62.13017609 -198.94245911 62.13233948 C-199.86335327 62.12977646 -200.78424744 62.12721344 -201.73304749 62.12457275 C-202.94001077 62.12463507 -202.94001077 62.12463507 -204.17135715 62.12469864 C-206 62 -206 62 -207 61 C-207.08685603 59.43827255 -207.10702219 57.87270656 -207.09765625 56.30859375 C-207.09443359 55.36435547 -207.09121094 54.42011719 -207.08789062 53.44726562 C-207.07951172 52.45404297 -207.07113281 51.46082031 -207.0625 50.4375 C-207.05798828 49.44041016 -207.05347656 48.44332031 -207.04882812 47.41601562 C-207.03700007 44.94395151 -207.02051849 42.47200482 -207 40 C-204.69 39.34 -202.38 38.68 -200 38 C-199.67 43.28 -199.34 48.56 -199 54 C-168.97 54 -138.94 54 -108 54 C-110.31 51.36 -112.62 48.72 -115 46 C-116.39845282 43.70510307 -117.75858855 41.38350998 -119 39 C-119.89203125 39.34933594 -120.7840625 39.69867188 -121.703125 40.05859375 C-122.87359375 40.51363281 -124.0440625 40.96867187 -125.25 41.4375 C-126.41015625 41.88996094 -127.5703125 42.34242188 -128.765625 42.80859375 C-131.18966308 43.70150633 -133.48286475 44.45794365 -136 45 C-136.495 43.02 -136.495 43.02 -137 41 C-132.64407177 37.21462156 -127.43615353 36.06916017 -122.01953125 34.37890625 C-118.86163175 33.34580393 -118.86163175 33.34580393 -118.07421875 30.83984375 C-118.03748047 29.92912109 -118.03748047 29.92912109 -118 29 C-115 30 -115 30 -114 32 C-111.67843403 32.40729228 -109.3431213 32.74438677 -107 33 C-107.33 34.32 -107.66 35.64 -108 37 C-108.66 37 -109.32 37 -110 37 C-104.95460503 45.94410927 -97.06102393 51.82719787 -88.0625 56.4375 C-87.43118164 56.76733887 -86.79986328 57.09717773 -86.14941406 57.43701172 C-70.1181565 65.20888088 -48.36781723 64.0129224 -31.83984375 58.4921875 C-26.79431191 56.62402042 -22.3250985 54.20091615 -18 51 C-16.9275 50.236875 -15.855 49.47375 -14.75 48.6875 C-11.11938048 45.13939456 -8.69557813 41.30008892 -6 37 C-11.94 35.515 -11.94 35.515 -18 34 C-18 32.68 -18 31.36 -18 30 C-12.72 30.33 -7.44 30.66 -2 31 C-1.34 28.36 -0.68 25.72 0 23 C-4.62 23 -9.24 23 -14 23 C-14 21.68 -14 20.36 -14 19 C-9.03926578 17.67713754 -4.08888488 17.91106803 1 18 C0.835 16.700625 0.67 15.40125 0.5 14.0625 C-0.0315638 9.34580713 -0.07529541 4.74361065 0 0 Z " fill="#222A2F" transform="translate(237,131)"/>
<path d="M0 0 C3.62011046 2.33296007 5.89022378 4.96794755 7.8125 8.8125 C7.63460937 9.82183594 7.63460937 9.82183594 7.453125 10.8515625 C6.67636751 15.99369708 7.29223425 19.45417582 10.3515625 23.640625 C13.14509894 27.13765257 16.10765114 30.48483705 19.08496094 33.82568359 C21.6462039 36.77133018 23.98035931 39.87200608 26.3125 43 C31.51495448 50.46182353 31.51495448 50.46182353 39.140625 54.82421875 C45.29916048 53.12734568 47.40831317 47.89356658 50.5625 42.625 C51.22121094 41.56990234 51.87992188 40.51480469 52.55859375 39.42773438 C54.33589814 36.57070855 56.08212539 33.69812319 57.8125 30.8125 C58.36470215 29.91998535 58.9169043 29.0274707 59.48583984 28.10791016 C60.84671343 25.75330334 61.29755708 24.04278022 61.6875 21.375 C62.69475411 16.5093128 64.03032828 14.10134497 67.8125 10.8125 C71.99507782 9.28607469 75.01218679 9.53090831 79.1875 11 C82.94224684 13.59256329 82.94224684 13.59256329 83.8125 16.8125 C84.27475901 21.58917642 84.31223779 23.83153323 82.125 28.125 C79.73928077 30.89759262 78.21090792 32.46894338 74.8125 33.8125 C70.58184307 33.59367292 68.35420582 33.17363721 64.8125 30.8125 C64.60367188 31.46347656 64.39484375 32.11445312 64.1796875 32.78515625 C62.27990897 36.99180871 59.63867998 40.52211252 56.9375 44.25 C55.87689864 45.72735834 54.81698952 47.20521391 53.7578125 48.68359375 C52.99984375 49.736073 52.99984375 49.736073 52.2265625 50.80981445 C50.96207643 52.60066032 49.75774602 54.41546287 48.5703125 56.2578125 C46.46869375 59.31216508 45.43066263 60.07242128 41.8125 60.8125 C35.69433004 60.91279787 32.52965946 59.55072526 28.13671875 55.34765625 C19.03435546 45.41919612 10.94693816 34.53600313 2.8125 23.8125 C1.76449219 24.32490234 1.76449219 24.32490234 0.6953125 24.84765625 C-2.66697884 25.97297598 -4.81288929 25.65843123 -8.3125 25.25 C-13.32601963 25.15358616 -15.98091382 25.83148489 -19.66992188 29.33666992 C-21.94934045 31.75235808 -24.07695119 34.24580032 -26.1875 36.8125 C-27.3932332 38.18978061 -28.60122431 39.5650913 -29.8125 40.9375 C-30.34230469 41.55882812 -30.87210938 42.18015625 -31.41796875 42.8203125 C-34.82672859 46.65798914 -38.52209329 50.22189751 -42.1875 53.8125 C-41.85492188 54.7096875 -41.52234375 55.606875 -41.1796875 56.53125 C-39.44841548 62.25671651 -40.20218164 66.91224317 -42.9375 72.1875 C-45.29289536 74.93546125 -46.82162984 76.48180715 -50.1875 77.8125 C-55.51155635 77.71742757 -58.38917426 76.50531669 -62.1875 72.8125 C-63.20251628 71.49056213 -64.2052009 70.15892722 -65.1875 68.8125 C-66.81353292 69.89652194 -68.43950385 70.98063696 -70.06518555 72.06518555 C-71.44185289 72.98236549 -72.8196273 73.89788586 -74.19848633 74.81176758 C-77.1766283 76.78816769 -80.13452807 78.7747973 -83.046875 80.84765625 C-83.81515625 81.39292969 -84.5834375 81.93820313 -85.375 82.5 C-86.02855469 82.97824219 -86.68210937 83.45648438 -87.35546875 83.94921875 C-89.1875 84.8125 -89.1875 84.8125 -91.42578125 84.45703125 C-92.29783203 84.13798828 -92.29783203 84.13798828 -93.1875 83.8125 C-93.1875 82.4925 -93.1875 81.1725 -93.1875 79.8125 C-91.34375 78.27734375 -91.34375 78.27734375 -88.6875 76.75 C-87.6975 76.15058594 -86.7075 75.55117187 -85.6875 74.93359375 C-85.13449219 74.60085449 -84.58148438 74.26811523 -84.01171875 73.92529297 C-80.52030072 71.79549059 -77.09706103 69.57044386 -73.6875 67.3125 C-72.99333984 66.87413818 -72.29917969 66.43577637 -71.58398438 65.98413086 C-66.76846159 62.77122257 -65.12716031 60.24354887 -63.1875 54.8125 C-59.16789216 50.30269608 -59.16789216 50.30269608 -56.1875 48.8125 C-52.62357185 48.6575466 -49.61493998 48.87774364 -46.1875 49.8125 C-41.84346832 45.19415485 -37.50641268 40.56935878 -33.17626953 35.93798828 C-31.92347851 34.59907365 -30.66942344 33.26133955 -29.41357422 31.92529297 C-27.87523455 30.28779444 -26.34299886 28.64482403 -24.8125 27 C-23.93851562 26.06542969 -23.06453125 25.13085938 -22.1640625 24.16796875 C-20.01077383 21.89495164 -20.01077383 21.89495164 -19.1875 18.8125 C-19.6825 17.8225 -19.6825 17.8225 -20.1875 16.8125 C-20.75395111 12.16945813 -20.60873314 8.68736883 -18.5625 4.4375 C-13.28950461 -1.39054754 -7.37592851 -2.74789494 0 0 Z " fill="#1E252A" transform="translate(144.1875,13.1875)"/>
<path d="M0 0 C1.4540625 0.0309375 1.4540625 0.0309375 2.9375 0.0625 C3.03087432 18.26437928 3.10144523 36.46619655 3.14474869 54.66826344 C3.16538822 63.11949982 3.19353521 71.57058754 3.23925781 80.02172852 C3.27908321 87.38636026 3.30492269 94.75088436 3.31385398 102.11562079 C3.31907608 106.01650959 3.33137828 109.91709039 3.36042023 113.81788063 C3.38752178 117.48769371 3.39595587 121.15707122 3.38993073 124.82697487 C3.39156005 126.819592 3.41311034 128.81216142 3.43518066 130.80465698 C3.42968201 131.98676254 3.42418335 133.1688681 3.41851807 134.38679504 C3.42220524 135.41643781 3.42589241 136.44608057 3.42969131 137.50692463 C2.9375 140.0625 2.9375 140.0625 1.09493637 141.91723156 C-1.0625 143.0625 -1.0625 143.0625 -4.0625 143.0625 C-4.08582798 124.56527268 -4.10347868 106.06804833 -4.11431217 87.57080936 C-4.11947534 78.98282951 -4.12651844 70.39485877 -4.13793945 61.80688477 C-4.14788565 54.32434583 -4.15435327 46.84181349 -4.15658849 39.35926813 C-4.15789571 35.39485414 -4.16098226 31.43045905 -4.16823006 27.4660511 C-4.17498926 23.73889787 -4.17711717 20.01177143 -4.17560768 16.28461266 C-4.17588406 14.91274495 -4.17788978 13.5408764 -4.18170547 12.16901398 C-4.18664108 10.30389037 -4.18489794 8.43875256 -4.18275452 6.57362366 C-4.18367631 5.52738862 -4.1845981 4.48115358 -4.18554783 3.40321445 C-3.99781171 -0.16805253 -3.65115347 0.07451334 0 0 Z " fill="#2C343A" transform="translate(34.0625,7.9375)"/>
<path d="M0 0 C7.56703767 3.54962858 12.12747224 9.41781338 17 16 C20.90685185 21.07059496 23.30408887 23.55068148 29.75 24.625 C31.35875 24.810625 31.35875 24.810625 33 25 C33.042721 26.66611905 33.04063832 28.33382885 33 30 C32 31 32 31 28.5 31.4375 C22.83000224 31.30610968 19.09482204 28.76751483 15 25 C12.56128376 22.00813124 10.3064509 18.92903546 8.0625 15.7890625 C4.8848771 11.49204971 2.13460316 8.75600529 -3 6.9375 C-7.07257892 7.02234539 -8.77337463 8.56566304 -12 11 C-14.1963033 13.37252921 -14.1963033 13.37252921 -16.125 16.125 C-16.88941406 17.176875 -17.65382812 18.22875 -18.44140625 19.3125 C-21.39864814 23.52747306 -24.22606186 27.82827037 -27.0625 32.125 C-39.20904702 50.51801455 -39.20904702 50.51801455 -46 54 C-48.8125 54.1875 -48.8125 54.1875 -51 54 C-51.33 52.68 -51.66 51.36 -52 50 C-51.29037109 49.55914062 -51.29037109 49.55914062 -50.56640625 49.109375 C-41.45195712 42.92647383 -35.92673075 33.45913668 -29.9375 24.4375 C-29.5161377 23.80408691 -29.09477539 23.17067383 -28.66064453 22.51806641 C-28.24540527 21.89335449 -27.83016602 21.26864258 -27.40234375 20.625 C-26.99612793 20.01398438 -26.58991211 19.40296875 -26.17138672 18.7734375 C-25.0838401 17.1269309 -24.01194814 15.47011325 -22.94140625 13.8125 C-17.73955927 6.10916121 -10.21124413 -2.22790781 0 0 Z " fill="#248CC2" transform="translate(82,109)"/>
<path d="M0 0 C0 0.99 0 1.98 0 3 C-1.98 3.99 -3.96 4.98 -6 6 C-4.6078125 5.9071875 -4.6078125 5.9071875 -3.1875 5.8125 C0.46485218 6.02734425 0.63617394 6.5287273 3 9 C5.16299211 8.77242269 5.16299211 8.77242269 7 8 C7 8.99 7 9.98 7 11 C7.99 11 8.98 11 10 11 C9.73118823 17.04826484 9.08176177 21.2379446 5 26 C1.92138622 28.57937911 0.54692942 29.0097666 -3.5 28.9375 C-9.03159338 27.4558232 -11.71948479 24.49656826 -15 20 C-16.62603292 21.08402194 -18.25200385 22.16813696 -19.87768555 23.25268555 C-21.25435289 24.16986549 -22.6321273 25.08538586 -24.01098633 25.99926758 C-26.9891283 27.97566769 -29.94702807 29.9622973 -32.859375 32.03515625 C-33.62765625 32.58042969 -34.3959375 33.12570313 -35.1875 33.6875 C-35.84105469 34.16574219 -36.49460937 34.64398438 -37.16796875 35.13671875 C-39 36 -39 36 -41.23828125 35.64453125 C-41.81964844 35.43183594 -42.40101562 35.21914062 -43 35 C-43 33.68 -43 32.36 -43 31 C-41.15625 29.46484375 -41.15625 29.46484375 -38.5 27.9375 C-37.51 27.33808594 -36.52 26.73867187 -35.5 26.12109375 C-34.94699219 25.78835449 -34.39398438 25.45561523 -33.82421875 25.11279297 C-30.33280072 22.98299059 -26.90956103 20.75794386 -23.5 18.5 C-22.80583984 18.06163818 -22.11167969 17.62327637 -21.39648438 17.17163086 C-16.58096159 13.95872257 -14.93966031 11.43104887 -13 6 C-8.57858108 1.03938365 -6.574406 -0.14292187 0 0 Z " fill="#1F252B" transform="translate(94,62)"/>
<path d="M0 0 C3.05547662 1.96908494 4.88728238 3.73215181 6.8125 6.8125 C6.4825 7.8025 6.1525 8.7925 5.8125 9.8125 C5.214375 8.8225 4.61625 7.8325 4 6.8125 C3.278125 5.8225 2.55625 4.8325 1.8125 3.8125 C0.8225 3.8125 -0.1675 3.8125 -1.1875 3.8125 C-0.5275 4.67875 0.1325 5.545 0.8125 6.4375 C2.93945385 10.02673463 3.20040972 11.73944798 2.8125 15.8125 C2.4825 15.8125 2.1525 15.8125 1.8125 15.8125 C1.70292969 15.17441406 1.59335938 14.53632813 1.48046875 13.87890625 C1.24263672 12.63947266 1.24263672 12.63947266 1 11.375 C0.84917969 10.55128906 0.69835937 9.72757813 0.54296875 8.87890625 C0.30191406 8.19699219 0.06085938 7.51507813 -0.1875 6.8125 C-3.78014452 5.61495183 -6.41467474 5.48155042 -10.1875 5.8125 C-12.8344872 7.20935006 -12.8344872 7.20935006 -14.1875 9.8125 C-14.12608483 13.31316452 -13.89996637 15.74380044 -11.9375 18.6875 C-9.73582896 20.10285995 -7.76281492 20.46448447 -5.1875 20.8125 C-5.1875 21.1425 -5.1875 21.4725 -5.1875 21.8125 C-8.1575 22.3075 -8.1575 22.3075 -11.1875 22.8125 C-11.1875 23.1425 -11.1875 23.4725 -11.1875 23.8125 C-8.5475 24.1425 -5.9075 24.4725 -3.1875 24.8125 C-3.1875 25.1425 -3.1875 25.4725 -3.1875 25.8125 C-3.92613281 25.68488281 -4.66476563 25.55726562 -5.42578125 25.42578125 C-10.57821991 24.92166718 -13.88876778 24.87396304 -18.1875 27.98046875 C-21.02091401 30.83355924 -23.61245448 33.72572047 -26.1875 36.8125 C-27.39461875 38.18856641 -28.60278833 39.56371249 -29.8125 40.9375 C-30.34101562 41.5665625 -30.86953125 42.195625 -31.4140625 42.84375 C-34.23523118 45.97562008 -37.40753491 48.74733352 -40.5625 51.5390625 C-42.54114288 53.79324538 -42.54114288 53.79324538 -41.9375 57.0859375 C-41.69 57.98570313 -41.4425 58.88546875 -41.1875 59.8125 C-41.8475 59.8125 -42.5075 59.8125 -43.1875 59.8125 C-43.1875 58.8225 -43.1875 57.8325 -43.1875 56.8125 C-44.1775 56.8125 -45.1675 56.8125 -46.1875 56.8125 C-46.5175 57.4725 -46.8475 58.1325 -47.1875 58.8125 C-47.5175 58.3175 -47.8475 57.8225 -48.1875 57.3125 C-51.36322747 54.93070439 -54.28996066 55.62081774 -58.1875 55.8125 C-56.86044683 53.15839365 -55.58060357 52.94610804 -52.875 51.8125 C-51.3105157 51.15050334 -49.74797329 50.48389691 -48.1875 49.8125 C-47.54425781 49.56113281 -46.90101562 49.30976562 -46.23828125 49.05078125 C-43.19682884 47.21432332 -41.02758613 44.62890515 -38.6875 42 C-37.62926171 40.82910573 -36.57065658 39.65854291 -35.51171875 38.48828125 C-34.96821777 37.8845166 -34.4247168 37.28075195 -33.86474609 36.65869141 C-32.18516329 34.80992791 -30.48246113 32.98584194 -28.76953125 31.16796875 C-28.22167969 30.58442627 -27.67382812 30.00088379 -27.109375 29.3996582 C-26.05389457 28.2767692 -24.99539681 27.15670715 -23.93359375 26.03979492 C-21.68632009 23.63346592 -20.24239144 21.97717431 -19.1875 18.8125 C-19.6825 17.8225 -19.6825 17.8225 -20.1875 16.8125 C-20.75395111 12.16945813 -20.60873314 8.68736883 -18.5625 4.4375 C-13.28950461 -1.39054754 -7.37592851 -2.74789494 0 0 Z " fill="#191F25" transform="translate(144.1875,13.1875)"/>
<path d="M0 0 C2.5625 1.1875 2.5625 1.1875 4 3 C4.5625 5.375 4.5625 5.375 4 8 C3.154375 8.825 2.30875 9.65 1.4375 10.5 C0.633125 11.325 -0.17125 12.15 -1 13 C-0.95020416 15.760165 -0.95020416 15.760165 0 18 C2.74961511 18.94607807 2.74961511 18.94607807 6 19 C7.70680947 17.37446717 9.37660195 15.70884005 11 14 C13.3125 14.1875 13.3125 14.1875 15 15 C13.73175032 20.45347364 11.7442914 23.01285356 7 26 C2.70576791 26.78741118 -0.29718134 26.46854577 -4 24 C-6.28397032 24.34605611 -7.93409037 24.96704519 -10 26 C-13.83130541 26.43537562 -15.69658294 26.16384521 -19.125 24.3125 C-21.97569418 22.01955033 -24.09398609 20.12586282 -26 17 C-25.75 14.1875 -25.75 14.1875 -25 12 C-22.4354212 13.0991052 -21.02325524 13.97273524 -19.1875 16.125 C-17.00353234 18.37570608 -17.00353234 18.37570608 -13.25 18.25 C-11.64125 18.12625 -11.64125 18.12625 -10 18 C-9.58013054 15.71163778 -9.58013054 15.71163778 -10 13 C-10.825 12.175 -11.65 11.35 -12.5 10.5 C-15 8 -15 8 -15.3125 5.1875 C-15.1578125 4.1046875 -15.1578125 4.1046875 -15 3 C-9.97761847 -0.09069632 -5.75836804 -0.7976487 0 0 Z " fill="#252C33" transform="translate(178,152)"/>
<path d="M0 0 C1.67987227 1.31665664 3.34466005 2.65263027 5 4 C5.55300781 4.43054688 6.10601562 4.86109375 6.67578125 5.3046875 C8.55811132 7.7145142 8.13219915 9.313226 7.875 12.3125 C7.75174985 16.21028615 7.72559874 18.42523057 10.375 21.375 C11.24125 22.24125 12.1075 23.1075 13 24 C13.309375 24.77988281 13.61875 25.55976562 13.9375 26.36328125 C15.12143205 29.30134791 16.64179497 31.35185672 18.625 33.8125 C19.25664062 34.60269531 19.88828125 35.39289062 20.5390625 36.20703125 C21.02117187 36.79871094 21.50328125 37.39039063 22 38 C21.34 38.99 20.68 39.98 20 41 C19.67 40.01 19.34 39.02 19 38 C17.66798349 37.66144291 16.33447921 37.32871588 15 37 C13.44433594 35.50952148 13.44433594 35.50952148 11.984375 33.62109375 C11.45585937 32.94755859 10.92734375 32.27402344 10.3828125 31.58007812 C9.84398437 30.87302734 9.30515625 30.16597656 8.75 29.4375 C8.19570312 28.72658203 7.64140625 28.01566406 7.0703125 27.28320312 C5.70449513 25.52883426 4.34831168 23.76783576 3 22 C2.12085938 22.34804688 1.24171875 22.69609375 0.3359375 23.0546875 C-3.17167353 24.04864753 -4.88916622 23.97290552 -8.375 23.125 C-9.24898437 22.92132813 -10.12296875 22.71765625 -11.0234375 22.5078125 C-11.67570313 22.34023438 -12.32796875 22.17265625 -13 22 C-12.01 21.01 -11.02 20.02 -10 19 C-10.845625 18.154375 -11.69125 17.30875 -12.5625 16.4375 C-14.85409114 13.69019471 -14.99767088 13.13741835 -15.0625 9.3125 C-14 6 -14 6 -12.375 4.0625 C-9.02317947 2.56300134 -6.63019782 2.54622527 -3 3 C-0.5625 5 -0.5625 5 1 7 C1 6.01 1 5.02 1 4 C0.01 3.67 -0.98 3.34 -2 3 C-1.34 2.01 -0.68 1.02 0 0 Z " fill="#232B31" transform="translate(144,15)"/>
<path d="M0 0 C1.4540625 0.0309375 1.4540625 0.0309375 2.9375 0.0625 C3.03087432 18.26437928 3.10144523 36.46619655 3.14474869 54.66826344 C3.16538822 63.11949982 3.19353521 71.57058754 3.23925781 80.02172852 C3.27908321 87.38636026 3.30492269 94.75088436 3.31385398 102.11562079 C3.31907608 106.01650959 3.33137828 109.91709039 3.36042023 113.81788063 C3.38752178 117.48769371 3.39595587 121.15707122 3.38993073 124.82697487 C3.39156005 126.819592 3.41311034 128.81216142 3.43518066 130.80465698 C3.42968201 131.98676254 3.42418335 133.1688681 3.41851807 134.38679504 C3.42220524 135.41643781 3.42589241 136.44608057 3.42969131 137.50692463 C2.9375 140.0625 2.9375 140.0625 1.09493637 141.91723156 C-1.0625 143.0625 -1.0625 143.0625 -4.0625 143.0625 C-4.08582798 124.56527268 -4.10347868 106.06804833 -4.11431217 87.57080936 C-4.11947534 78.98282951 -4.12651844 70.39485877 -4.13793945 61.80688477 C-4.14788565 54.32434583 -4.15435327 46.84181349 -4.15658849 39.35926813 C-4.15789571 35.39485414 -4.16098226 31.43045905 -4.16823006 27.4660511 C-4.17498926 23.73889787 -4.17711717 20.01177143 -4.17560768 16.28461266 C-4.17588406 14.91274495 -4.17788978 13.5408764 -4.18170547 12.16901398 C-4.18664108 10.30389037 -4.18489794 8.43875256 -4.18275452 6.57362366 C-4.18367631 5.52738862 -4.1845981 4.48115358 -4.18554783 3.40321445 C-3.99781171 -0.16805253 -3.65115347 0.07451334 0 0 Z M-2.0625 1.0625 C-2.0625 47.2625 -2.0625 93.4625 -2.0625 141.0625 C-0.0825 140.0725 -0.0825 140.0725 1.9375 139.0625 C1.9375 93.5225 1.9375 47.9825 1.9375 1.0625 C0.6175 1.0625 -0.7025 1.0625 -2.0625 1.0625 Z " fill="#1A1F23" transform="translate(34.0625,7.9375)"/>
<path d="M0 0 C2.475 0.495 2.475 0.495 5 1 C4.54108566 6.30163404 1.663582 9.96236028 -1.25 14.23046875 C-1.78214111 15.02093094 -2.31428223 15.81139313 -2.86254883 16.62580872 C-3.99177012 18.29857386 -5.12509474 19.96857528 -6.26220703 21.63598633 C-7.97705678 24.15381363 -9.67491634 26.68245876 -11.37109375 29.21289062 C-26.95612742 52.30736253 -26.95612742 52.30736253 -35 55 C-35.42894394 49.62288136 -35.42894394 49.62288136 -33.53125 46.8671875 C-32.8609375 46.20976562 -32.190625 45.55234375 -31.5 44.875 C-26.57258888 39.68825145 -22.86828946 33.99762311 -19 28 C-17.36295078 25.51496335 -15.71360886 23.03821146 -14.0625 20.5625 C-13.64709961 19.93835205 -13.23169922 19.3142041 -12.80371094 18.67114258 C-8.61503963 12.39219126 -4.32063765 6.18873944 0 0 Z " fill="#E59B65" transform="translate(72,120)"/>
<path d="M0 0 C0.99 0 1.98 0 3 0 C3.83844165 3.6534201 4.13119431 7.03691171 4.14717102 10.78213501 C4.15432632 11.93741196 4.16148163 13.0926889 4.16885376 14.28297424 C4.17288712 16.17051674 4.17288712 16.17051674 4.17700195 18.09619141 C4.18327183 19.44179966 4.18991909 20.78740619 4.19691467 22.13301086 C4.21787856 26.53918265 4.22830335 30.94535451 4.23828125 35.3515625 C4.24233035 36.86987704 4.24644732 38.38819141 4.25063133 39.90650558 C4.26965864 47.03400259 4.28390014 54.16148934 4.2922433 61.28900683 C4.30203552 69.51792125 4.32841661 77.74656811 4.36874419 85.97538817 C4.39885869 92.33811825 4.41370734 98.70077134 4.41702431 105.06357133 C4.41937828 108.86376682 4.42838462 112.66367561 4.45348549 116.46379471 C4.47669288 120.03438561 4.4810296 123.60449945 4.47072411 127.1751461 C4.46998957 129.1128331 4.48912778 131.0504955 4.50878906 132.98808289 C4.50184525 134.13772018 4.49490143 135.28735748 4.48774719 136.47183228 C4.49013555 137.47285791 4.4925239 138.47388355 4.49498463 139.5052433 C4 142 4 142 1.9695158 143.84551048 C0.99460548 144.41698279 0.99460548 144.41698279 0 145 C-0.66 144.67 -1.32 144.34 -2 144 C-2 143.34 -2 142.68 -2 142 C-2.66 141.67 -3.32 141.34 -4 141 C-2.515 140.01 -2.515 140.01 -1 139 C-0.53583246 136.48063486 -0.53583246 136.48063486 -0.60127258 133.48251343 C-0.58873444 132.31019669 -0.57619629 131.13787994 -0.5632782 129.93003845 C-0.56471329 128.63747635 -0.56614838 127.34491425 -0.56762695 126.01318359 C-0.5586145 124.64343884 -0.54828856 123.27370219 -0.53674316 121.90397644 C-0.50908591 118.17898597 -0.49987692 114.45414815 -0.49388909 110.72906828 C-0.48452799 106.8385735 -0.45832656 102.94819377 -0.43388367 99.05776978 C-0.3901524 91.68779631 -0.36164625 84.31784509 -0.33856028 76.94778121 C-0.31154401 68.55846939 -0.2676304 60.16927294 -0.22227156 51.78004336 C-0.12933044 34.52008822 -0.05769319 17.26010819 0 0 Z " fill="#D0D3D5" transform="translate(37,9)"/>
<path d="M0 0 C2.625 0.4375 2.625 0.4375 4.875 2.75 C7.70436144 7.09509078 8.46313133 11.33164248 7.625 16.4375 C6.28270946 19.24246589 5.07670636 20.29877743 2.625 22.4375 C-1 23.5 -1 23.5 -4.375 23.4375 C-7.0229735 21.67218433 -7.3519986 20.50650421 -8.375 17.4375 C-8.93438912 12.62308547 -8.85390066 9.31548454 -6.5 5 C-2.7780303 0.51174242 -2.7780303 0.51174242 0 0 Z " fill="#282E34" transform="translate(200.375,130.5625)"/>
<path d="M0 0 C3.20990557 4.91516791 4.75505451 7.95956388 4 14 C2.02380952 19.97619048 2.02380952 19.97619048 0 22 C-2.8125 22.375 -2.8125 22.375 -6 22 C-10.07435034 18.03882606 -11.74156503 14.06747979 -12.4375 8.5 C-12 5 -12 5 -9.9375 2.0625 C-6.35134537 -0.45543836 -4.29107165 -0.4206933 0 0 Z " fill="#262D33" transform="translate(152,131)"/>
<path d="M0 0 C3.53428911 3.43995755 6.74182423 6.99362922 9.875 10.8125 C16.19856199 18.61815738 16.19856199 18.61815738 23 26 C28.01879978 26.38606152 30.90712202 25.97663853 35 23 C36 26 36 26 35.375 28.5625 C34 31 34 31 31.875 32.375 C27.08108179 33.41715613 23.19419405 33.38329625 19.0234375 30.75390625 C13.27195968 25.97628423 8.3441511 20.0637109 4 14 C4 13.34 4 12.68 4 12 C4.66 12 5.32 12 6 12 C6.33 12.66 6.66 13.32 7 14 C7 10.20132473 5.88868664 9.31435078 3.5 6.4375 C0 2.20833333 0 2.20833333 0 0 Z " fill="#242B32" transform="translate(157,41)"/>
<path d="M0 0 C3.30496687 2.17432031 3.90955263 3.68343419 5 7.5 C5 11 5 11 3.625 13.4375 C-0.21819808 15.72511791 -3.64200516 15.90991101 -8 15 C-10.625 12.9375 -10.625 12.9375 -12 10 C-12 6.22089384 -11.83289714 3.99306967 -9.375 1.0625 C-6.02317947 -0.43699866 -3.63019782 -0.45377473 0 0 Z " fill="#F2F3F4" transform="translate(141,18)"/>
<path d="M0 0 C2.375 1.5 2.375 1.5 4 4 C4.7242756 9.06992923 4.80622285 10.87128801 1.8125 15.0625 C-1 17 -1 17 -3.5625 17.125 C-6.86030456 15.60293636 -8.16025818 14.13437495 -10 11 C-10.56116268 7.0017159 -10.63326454 4.94989681 -8.375 1.5625 C-5.28314769 -0.47161336 -3.63632575 -0.60605429 0 0 Z " fill="#F3F3F4" transform="translate(94,68)"/>
<path d="M0 0 C0 0.99 0 1.98 0 3 C-1.134375 3.433125 -2.26875 3.86625 -3.4375 4.3125 C-4.613125 4.869375 -5.78875 5.42625 -7 6 C-7.33 6.99 -7.66 7.98 -8 9 C-8.66 9 -9.32 9 -10 9 C-10.02712066 10.43739513 -10.04645067 11.87493863 -10.0625 13.3125 C-10.07410156 14.11300781 -10.08570312 14.91351563 -10.09765625 15.73828125 C-10.09657855 18.16861334 -10.09657855 18.16861334 -9 21 C-10.65 21 -12.3 21 -14 21 C-14 20.01 -14 19.02 -14 18 C-15.32 17.34 -16.64 16.68 -18 16 C-18 15.34 -18 14.68 -18 14 C-17.34 13.67 -16.68 13.34 -16 13 C-15.30699025 11.28397586 -14.61406718 9.56791658 -13.921875 7.8515625 C-10.73654271 1.45390358 -6.64507465 -0.14445814 0 0 Z " fill="#262E34" transform="translate(94,62)"/>
<path d="M0 0 C0 3 0 3 -2.22265625 5.26953125 C-4.11345651 6.96266876 -6.00929382 8.65019823 -7.91015625 10.33203125 C-10.37468169 12.87297679 -10.37468169 12.87297679 -9.80859375 16.32421875 C-9.54175781 17.20722656 -9.27492188 18.09023437 -9 19 C-9.66 19 -10.32 19 -11 19 C-11 18.01 -11 17.02 -11 16 C-11.99 16 -12.98 16 -14 16 C-14.33 16.66 -14.66 17.32 -15 18 C-15.33 17.505 -15.66 17.01 -16 16.5 C-19.17572747 14.11820439 -22.10246066 14.80831774 -26 15 C-24.67294683 12.34589365 -23.39310357 12.13360804 -20.6875 11 C-15.50345933 8.80642246 -11.35610101 6.63008417 -7 3 C-6.67 3.99 -6.34 4.98 -6 6 C-4.02 4.02 -2.04 2.04 0 0 Z " fill="#192126" transform="translate(112,54)"/>
<path d="M0 0 C3.0625 0.375 3.0625 0.375 5 2.0625 C6.0625 4.375 6.0625 4.375 6 6.9375 C4.84702423 9.93523701 3.9312479 10.94062605 1.0625 12.375 C-2.30786311 12.13425978 -3.52548021 11.78701979 -5.9375 9.375 C-5.31633436 0.67868098 -5.31633436 0.67868098 0 0 Z " fill="#ECECED" transform="translate(216.9375,28.625)"/>
<path d="M0 0 C0.66 0.33 1.32 0.66 2 1 C2.625 3.5625 2.625 3.5625 3 6 C5.74961511 6.94607807 5.74961511 6.94607807 9 7 C10.70680947 5.37446717 12.37660195 3.70884005 14 2 C16.3125 2.1875 16.3125 2.1875 18 3 C16.73348225 8.44602633 14.67442342 10.94364622 10 14 C6.625 14.3125 6.625 14.3125 4 14 C4 13.67 4 13.34 4 13 C6.31 12.34 8.62 11.68 11 11 C10.37351563 10.80664062 9.74703125 10.61328125 9.1015625 10.4140625 C8.28429687 10.15367187 7.46703125 9.89328125 6.625 9.625 C5.40683594 9.24214844 5.40683594 9.24214844 4.1640625 8.8515625 C2 8 2 8 0 6 C-0.99 6.66 -1.98 7.32 -3 8 C-3 6.35 -3 4.7 -3 3 C-2.01 2.67 -1.02 2.34 0 2 C0 1.34 0 0.68 0 0 Z " fill="#212429" transform="translate(175,164)"/>
<path d="M0 0 C2.46999691 2.46999691 2.61884125 3.55074859 3 7 C2.76174418 9.64272255 2.4654214 12.19726483 2.0625 14.8125 C1.96259766 15.50537109 1.86269531 16.19824219 1.75976562 16.91210938 C1.51398412 18.60917213 1.25801848 20.30475459 1 22 C1.78761719 22.13277344 2.57523437 22.26554687 3.38671875 22.40234375 C6.23469449 23.05367452 7.17464166 23.79035569 9 26 C8.649375 26.78375 8.29875 27.5675 7.9375 28.375 C7.628125 29.24125 7.31875 30.1075 7 31 C7.33 31.66 7.66 32.32 8 33 C5.03 33.495 5.03 33.495 2 34 C1.67 32.35 1.34 30.7 1 29 C2.98 29 4.96 29 7 29 C6.42055068 27.00136244 6.42055068 27.00136244 5 25 C3.02094497 24.27351144 1.02061203 23.60130814 -1 23 C-1.0272367 20.47909222 -1.04695207 17.95848543 -1.0625 15.4375 C-1.07087891 14.73302734 -1.07925781 14.02855469 -1.08789062 13.30273438 C-1.10882603 8.75975202 -0.74800682 4.48215108 0 0 Z " fill="#F2BB83" transform="translate(122,130)"/>
<path d="M0 0 C2.28845714 2.97499428 2.52410935 6.32518732 2.46875 10.02734375 C1.60383285 13.66720344 -0.99009104 14.99339403 -4 17 C-4 14.66666667 -4 12.33333333 -4 10 C-3.34 10 -2.68 10 -2 10 C-1.67 7.69 -1.34 5.38 -1 3 C-1.99 3.33 -2.98 3.66 -4 4 C-6.04296875 3.22265625 -6.04296875 3.22265625 -8.1875 2.0625 C-8.90292969 1.68222656 -9.61835938 1.30195313 -10.35546875 0.91015625 C-10.89816406 0.60980469 -11.44085938 0.30945313 -12 0 C-12 -0.33 -12 -0.66 -12 -1 C-3.07894737 -2.48684211 -3.07894737 -2.48684211 0 0 Z " fill="#262F35" transform="translate(226,26)"/>
<path d="M0 0 C0.25 2.8125 0.25 2.8125 0 6 C-1.75 7.5 -1.75 7.5 -4 9 C-4.70640625 9.52980469 -5.4128125 10.05960938 -6.140625 10.60546875 C-9.0703125 12.80273438 -9.0703125 12.80273438 -12 15 C-12.796875 12.83203125 -12.796875 12.83203125 -13 10 C-11.015625 7.32421875 -11.015625 7.32421875 -8.25 4.6875 C-6.89648438 3.36298828 -6.89648438 3.36298828 -5.515625 2.01171875 C-3 0 -3 0 0 0 Z " fill="#2B3339" transform="translate(117,46)"/>
<path d="M0 0 C-0.99 0.66 -1.98 1.32 -3 2 C0.3 1.34 3.6 0.68 7 0 C8.5625 2.375 8.5625 2.375 10 5 C9.67 5.66 9.34 6.32 9 7 C7.68 5.35 6.36 3.7 5 2 C4.18015625 2.34933594 3.3603125 2.69867188 2.515625 3.05859375 C1.43796875 3.51363281 0.3603125 3.96867188 -0.75 4.4375 C-1.81734375 4.88996094 -2.8846875 5.34242188 -3.984375 5.80859375 C-6.3413841 6.73979553 -8.52992835 7.4784072 -11 8 C-11.33 6.68 -11.66 5.36 -12 4 C-8.15336308 0.86570325 -4.95471579 -1.65157193 0 0 Z " fill="#1D2429" transform="translate(112,168)"/>
<path d="M0 0 C1.69769531 0.12568359 1.69769531 0.12568359 3.4296875 0.25390625 C4.91143781 0.35706608 6.39320982 0.45991453 7.875 0.5625 C8.62136719 0.61857422 9.36773437 0.67464844 10.13671875 0.73242188 C14.19061542 1.13388925 14.19061542 1.13388925 18 0 C17.67 0.99 17.34 1.98 17 3 C15.02 3 13.04 3 11 3 C11 3.66 11 4.32 11 5 C11.66 5.33 12.32 5.66 13 6 C11.3954444 5.85851011 9.79136233 5.71164314 8.1875 5.5625 C7.29417969 5.48128906 6.40085938 5.40007812 5.48046875 5.31640625 C3 5 3 5 0 4 C0 2.68 0 1.36 0 0 Z " fill="#1C232B" transform="translate(219,161)"/>
<path d="M0 0 C3.83511953 1.56245611 6.10365784 4.10365784 9 7 C11.16620544 8.29519995 11.16620544 8.29519995 13 9 C11.02 9.33 9.04 9.66 7 10 C7 10.66 7 11.32 7 12 C3.20048294 10.50733258 1.1645138 8.44718865 -1 5 C-0.75 2.1875 -0.75 2.1875 0 0 Z " fill="#1E242A" transform="translate(153,164)"/>
<path d="M0 0 C0.56847656 0.42152344 1.13695313 0.84304687 1.72265625 1.27734375 C6.57376495 4.71928231 10.02230894 6.74563017 16 7 C16.042721 8.66611905 16.04063832 10.33382885 16 12 C15 13 15 13 11.3125 13.3125 C6.750081 13.28783828 4.51027022 11.80821617 1 9 C4.61029169 9 7.55806676 9.96092582 11 11 C11 10.34 11 9.68 11 9 C10.45730469 8.74605469 9.91460937 8.49210938 9.35546875 8.23046875 C8.64003906 7.88628906 7.92460938 7.54210937 7.1875 7.1875 C6.12595703 6.68283203 6.12595703 6.68283203 5.04296875 6.16796875 C2.96195141 4.97824756 1.53063798 3.83966269 0 2 C0 1.34 0 0.68 0 0 Z " fill="#1D83B8" transform="translate(99,127)"/>
<path d="M0 0 C2.25 0.125 2.25 0.125 5 1 C7.3125 4.0625 7.3125 4.0625 9 7 C8.67 7.66 8.34 8.32 8 9 C5.525 5.535 5.525 5.535 3 2 C2.67 2.66 2.34 3.32 2 4 C1.01 4.33 0.02 4.66 -1 5 C-2.02281518 7.09719872 -2.02281518 7.09719872 -2.6875 9.5625 C-2.93886719 10.38878906 -3.19023437 11.21507813 -3.44921875 12.06640625 C-3.63097656 12.70449219 -3.81273437 13.34257813 -4 14 C-4.66 14 -5.32 14 -6 14 C-5.67 14.99 -5.34 15.98 -5 17 C-5.66 17 -6.32 17 -7 17 C-7.66 19.31 -8.32 21.62 -9 24 C-10.11765891 20.64702328 -9.96003625 20.22264761 -8.671875 17.12890625 C-8.36636719 16.38962891 -8.06085938 15.65035156 -7.74609375 14.88867188 C-7.25302734 13.7372168 -7.25302734 13.7372168 -6.75 12.5625 C-6.28013672 11.4168457 -6.28013672 11.4168457 -5.80078125 10.24804688 C-4.22015946 6.48013311 -2.69996939 3.12496457 0 0 Z " fill="#EABD91" transform="translate(141,80)"/>
<path d="M0 0 C0 0.33 0 0.66 0 1 C-1.98 1.33 -3.96 1.66 -6 2 C-1.66231898 4.16198167 -1.66231898 4.16198167 3 5 C2.67 7.31 2.34 9.62 2 12 C0.66666667 10 -0.66666667 8 -2 6 C-5 5.5 -5 5.5 -8 6 C-9.9451 8.91765 -10.45276317 10.62537285 -11 14 C-11.33 14 -11.66 14 -12 14 C-12.32613618 9.32538149 -11.70582788 6.83325617 -9 3 C-9.99 2.67 -10.98 2.34 -12 2 C-7.72424275 -1.23921004 -5.16347713 -1.11369115 0 0 Z " fill="#141A1F" transform="translate(222,24)"/>
<path d="M0 0 C2.97161173 0.1382145 5.21513478 0.34198168 7.546875 2.296875 C8.9375 3.875 8.9375 3.875 11 7 C10.67 7.99 10.34 8.98 10 10 C9.1028125 8.515 9.1028125 8.515 8.1875 7 C7.465625 6.01 6.74375 5.02 6 4 C5.01 4 4.02 4 3 4 C3.66 4.86625 4.32 5.7325 5 6.625 C7.12695385 10.21423463 7.38790972 11.92694798 7 16 C6.67 16 6.34 16 6 16 C5.89042969 15.36191406 5.78085938 14.72382813 5.66796875 14.06640625 C5.50941406 13.24011719 5.35085937 12.41382813 5.1875 11.5625 C5.03667969 10.73878906 4.88585937 9.91507813 4.73046875 9.06640625 C4.36888672 8.04353516 4.36888672 8.04353516 4 7 C-0.25800538 5.58066487 -4.22911538 5.27348323 -8.4375 7 C-8.953125 7.33 -9.46875 7.66 -10 8 C-9.67 6.35 -9.34 4.7 -9 3 C-8.34 3.33 -7.68 3.66 -7 4 C-4.99199544 3.71887936 -2.98985949 3.38932033 -1 3 C-0.67 2.01 -0.34 1.02 0 0 Z " fill="#151A20" transform="translate(140,13)"/>
<path d="M0 0 C4.95 0 9.9 0 15 0 C15 0.99 15 1.98 15 3 C11.57767028 4.14077657 8.91326783 4.09815117 5.3125 4.0625 C3.54326172 4.04896484 3.54326172 4.04896484 1.73828125 4.03515625 C0.83464844 4.02355469 -0.06898437 4.01195312 -1 4 C-0.67 2.68 -0.34 1.36 0 0 Z " fill="#1A2126" transform="translate(99,153)"/>
<path d="M0 0 C2.97 0.495 2.97 0.495 6 1 C6.75 3.1875 6.75 3.1875 7 6 C5.3125 8.8125 5.3125 8.8125 3 11 C1.68 11 0.36 11 -1 11 C-0.67 7.37 -0.34 3.74 0 0 Z " fill="#2E353A" transform="translate(225,75)"/>
<path d="M0 0 C3.69495081 3.58842971 7.04758217 7.33171871 10.3125 11.3125 C10.76689453 11.86228516 11.22128906 12.41207031 11.68945312 12.97851562 C12.79525852 14.31712216 13.89795939 15.65829231 15 17 C14.67 17.66 14.34 18.32 14 19 C12.35 18.01 10.7 17.02 9 16 C9.99 17.32 10.98 18.64 12 20 C11.67 20.66 11.34 21.32 11 22 C9.82739389 20.71372289 8.6620717 19.42080217 7.5 18.125 C6.8503125 17.40570313 6.200625 16.68640625 5.53125 15.9453125 C4 14 4 14 4 12 C4.66 12 5.32 12 6 12 C6.33 12.66 6.66 13.32 7 14 C7 10.20132473 5.88868664 9.31435078 3.5 6.4375 C0 2.20833333 0 2.20833333 0 0 Z " fill="#1A1F24" transform="translate(157,41)"/>
<path d="M0 0 C1 2 1 2 0.8125 5.3125 C1.03429035 9.67437693 1.9128279 10.99858268 5 14 C7.11660427 15.31165257 7.11660427 15.31165257 9 16 C6.34771188 17.07525194 3.71631546 18.09456151 1 19 C-0.32 17.35 -1.64 15.7 -3 14 C-2.67 13.34 -2.34 12.68 -2 12 C-1.34 12 -0.68 12 0 12 C-0.33 11.34 -0.66 10.68 -1 10 C-1.09472912 8.48154798 -1.1298841 6.95889616 -1.125 5.4375 C-1.12757812 4.63183594 -1.13015625 3.82617188 -1.1328125 2.99609375 C-1 1 -1 1 0 0 Z " fill="#171D23" transform="translate(84,70)"/>
<path d="M0 0 C-0.33 2.64 -0.66 5.28 -1 8 C-2.8125 8.625 -2.8125 8.625 -5 9 C-5.99 8.34 -6.98 7.68 -8 7 C-6.02 7 -4.04 7 -2 7 C-4.31 6.34 -6.62 5.68 -9 5 C-8.67 4.34 -8.34 3.68 -8 3 C-10.97 2.505 -10.97 2.505 -14 2 C-14 1.67 -14 1.34 -14 1 C-4.58997722 -0.14806378 -4.58997722 -0.14806378 0 0 Z " fill="#F1B170" transform="translate(237,154)"/>
<path d="M0 0 C0.33 0 0.66 0 1 0 C1.28345896 4.1025782 1.52101861 8.20654936 1.75 12.3125 C1.87181641 14.06336914 1.87181641 14.06336914 1.99609375 15.84960938 C2.08310547 17.52700195 2.08310547 17.52700195 2.171875 19.23828125 C2.2347168 20.26993408 2.29755859 21.30158691 2.36230469 22.36450195 C2 25 2 25 -0.01074219 26.86010742 C-0.66719727 27.23627197 -1.32365234 27.61243652 -2 28 C-2.66 27.67 -3.32 27.34 -4 27 C-4 26.34 -4 25.68 -4 25 C-4.66 24.67 -5.32 24.34 -6 24 C-2.25 21 -2.25 21 0 21 C0 14.07 0 7.14 0 0 Z " fill="#ECECED" transform="translate(39,126)"/>
<path d="M0 0 C2.97 0.495 2.97 0.495 6 1 C5.66260373 3.530472 5.3938922 4.6818563 3.375 6.3125 C0.05401826 7.27383682 -2.64617202 6.64496692 -6 6 C-6 5.01 -6 4.02 -6 3 C-4.02 2.67 -2.04 2.34 0 2 C0 1.34 0 0.68 0 0 Z " fill="#2A3137" transform="translate(93,84)"/>
<path d="M0 0 C0.66 0.33 1.32 0.66 2 1 C1.3125 4.375 1.3125 4.375 0 8 C-3.30480334 10.05433721 -6.16485872 10.21915093 -10 10 C-10.33 8.35 -10.66 6.7 -11 5 C-6.05 5.99 -6.05 5.99 -1 7 C-1.66 6.67 -2.32 6.34 -3 6 C-1.125 1.125 -1.125 1.125 0 0 Z " fill="#2A3237" transform="translate(191,64)"/>
<path d="M0 0 C5.4389165 -0.21755666 9.87080814 -0.10428384 15 2 C13 4 13 4 9.9609375 4.1953125 C8.77757812 4.17210937 7.59421875 4.14890625 6.375 4.125 C5.18648437 4.10695312 3.99796875 4.08890625 2.7734375 4.0703125 C1.85820312 4.04710937 0.94296875 4.02390625 0 4 C0 2.68 0 1.36 0 0 Z " fill="#1A222C" transform="translate(223,150)"/>
<path d="M0 0 C1.82586387 0.47185246 3.64482063 0.9770734 5.4375 1.5625 C5.4375 1.8925 5.4375 2.2225 5.4375 2.5625 C4.69886719 2.43488281 3.96023437 2.30726562 3.19921875 2.17578125 C-2.75468042 1.53986153 -2.75468042 1.53986153 -8.21044922 3.64208984 C-11.68737876 6.62185989 -14.65440168 10.03614456 -17.5625 13.5625 C-17.68625 12.923125 -17.81 12.28375 -17.9375 11.625 C-18.14375 10.944375 -18.35 10.26375 -18.5625 9.5625 C-19.2225 9.2325 -19.8825 8.9025 -20.5625 8.5625 C-19.9025 8.2325 -19.2425 7.9025 -18.5625 7.5625 C-17.5725 7.8925 -16.5825 8.2225 -15.5625 8.5625 C-15.05203125 7.88960937 -14.5415625 7.21671875 -14.015625 6.5234375 C-9.55715654 1.29027063 -7.08078585 -1.26832582 0 0 Z " fill="#10151A" transform="translate(135.5625,36.4375)"/>
<path d="M0 0 C0.33 0.99 0.66 1.98 1 3 C0.67 3.66 0.34 4.32 0 5 C-2.06640625 5.4140625 -2.06640625 5.4140625 -4.5625 5.625 C-5.38878906 5.69976563 -6.21507812 5.77453125 -7.06640625 5.8515625 C-8.02353516 5.92503906 -8.02353516 5.92503906 -9 6 C-9.33 4.35 -9.66 2.7 -10 1 C-6.52674819 -0.1577506 -3.63932552 -0.06866652 0 0 Z " fill="#293136" transform="translate(141,12)"/>
<path d="M0 0 C0 3 0 3 -1.75 5.04296875 C-2.4925 5.75066406 -3.235 6.45835938 -4 7.1875 C-4.7425 7.90292969 -5.485 8.61835937 -6.25 9.35546875 C-6.8275 9.89816406 -7.405 10.44085938 -8 11 C-8.66 10.01 -9.32 9.02 -10 8 C-10.99 8.99 -11.98 9.98 -13 11 C-13.99 10.67 -14.98 10.34 -16 10 C-13.36 7.69 -10.72 5.38 -8 3 C-7.01 4.485 -7.01 4.485 -6 6 C-4.02 4.02 -2.04 2.04 0 0 Z " fill="#0F151A" transform="translate(112,54)"/>
<path d="M0 0 C1.093125 0.226875 2.18625 0.45375 3.3125 0.6875 C3.6425 1.6775 3.9725 2.6675 4.3125 3.6875 C2.72977399 5.27022601 0.93215997 5.03485747 -1.25 5.25 C-2.48943359 5.37568359 -2.48943359 5.37568359 -3.75390625 5.50390625 C-4.71103516 5.59478516 -4.71103516 5.59478516 -5.6875 5.6875 C-6.0175 4.6975 -6.3475 3.7075 -6.6875 2.6875 C-4.58035839 -0.41123767 -3.86755884 -0.32775922 0 0 Z " fill="#28333B" transform="translate(165.6875,171.3125)"/>
<path d="M0 0 C0.68707555 2.49064888 1 4.37886292 1 7 C-0.42578125 8.421875 -0.42578125 8.421875 -2.3125 9.75 C-2.92738281 10.19859375 -3.54226562 10.6471875 -4.17578125 11.109375 C-6 12 -6 12 -9 11 C-7 9 -5 7 -3 5 C-3.66 4.67 -4.32 4.34 -5 4 C-3.35 2.68 -1.7 1.36 0 0 Z " fill="#192025" transform="translate(69,81)"/>
<path d="M0 0 C1 3 1 3 1 5 C2.32 3.35 3.64 1.7 5 0 C4.69381595 3.67420866 4.24228216 4.78135513 1.4375 7.3125 C0.633125 7.869375 -0.17125 8.42625 -1 9 C-1.33 8.34 -1.66 7.68 -2 7 C-3.97888961 6.27306096 -5.97954558 5.60183749 -8 5 C-7.4225 4.731875 -6.845 4.46375 -6.25 4.1875 C-3.9674132 2.98280141 -2.0262058 1.59201885 0 0 Z " fill="#141B20" transform="translate(222,37)"/>
<path d="M0 0 C0.66 0.99 1.32 1.98 2 3 C-0.31 5.31 -2.62 7.62 -5 10 C-6.32 9.34 -7.64 8.68 -9 8 C-6.17493137 5.0702992 -3.21203935 2.49825283 0 0 Z " fill="#2A3339" transform="translate(125,36)"/>
<path d="M0 0 C0.66 0.33 1.32 0.66 2 1 C1.98839844 1.61488281 1.97679687 2.22976562 1.96484375 2.86328125 C1.95582031 3.67152344 1.94679687 4.47976562 1.9375 5.3125 C1.92589844 6.11300781 1.91429687 6.91351563 1.90234375 7.73828125 C1.90342145 10.16861334 1.90342145 10.16861334 3 13 C2.01 13.33 1.02 13.66 0 14 C-0.99 10.04 -1.98 6.08 -3 2 C-2.01 1.34 -1.02 0.68 0 0 Z " fill="#2A343A" transform="translate(127,19)"/>
<path d="M0 0 C3 0.375 3 0.375 4.875 1.875 C5.24625 2.37 5.6175 2.865 6 3.375 C5.34 3.375 4.68 3.375 4 3.375 C4 4.035 4 4.695 4 5.375 C-2.0546875 5.5703125 -2.0546875 5.5703125 -4 5.375 C-4.66 4.715 -5.32 4.055 -6 3.375 C-4.09456498 0.83441997 -3.22246552 0.40280819 0 0 Z " fill="#394247" transform="translate(137,32.625)"/>
<path d="M0 0 C0.33 0.99 0.66 1.98 1 3 C-0.65 4.32 -2.3 5.64 -4 7 C-3.67 7.99 -3.34 8.98 -3 10 C1.14093698 10.20970559 1.14093698 10.20970559 5 9 C4.67 9.99 4.34 10.98 4 12 C1.25 12.6875 1.25 12.6875 -2 13 C-4.375 11.5625 -4.375 11.5625 -6 10 C-5.58578031 5.16743695 -3.53586014 3.17320782 0 0 Z " fill="#EEB778" transform="translate(182,159)"/>
<path d="M0 0 C1.3522779 2.70455579 0.69068891 4.09910656 0 7 C-0.12503906 7.62648438 -0.25007812 8.25296875 -0.37890625 8.8984375 C-1.0977585 11.33078033 -2.18235475 13.12669961 -3.5625 15.25 C-4.01753906 15.95640625 -4.47257813 16.6628125 -4.94140625 17.390625 C-5.29074219 17.92171875 -5.64007813 18.4528125 -6 19 C-6.33 18.34 -6.66 17.68 -7 17 C-6.566875 16.319375 -6.13375 15.63875 -5.6875 14.9375 C-3.7927768 11.63927813 -3.19173756 8.79388774 -2.52734375 5.0859375 C-2 3 -2 3 0 0 Z " fill="#151B20" transform="translate(209,27)"/>
<path d="M0 0 C0.99 0.33 1.98 0.66 3 1 C1.8125 3.9375 1.8125 3.9375 0 7 C-2.6875 7.875 -2.6875 7.875 -5 8 C-4.66275164 4.88045262 -4.3790035 3.3790035 -2.125 1.125 C-1.42375 0.75375 -0.7225 0.3825 0 0 Z " fill="#2794CA" transform="translate(66,118)"/>
<path d="M0 0 C0.99 0.66 1.98 1.32 3 2 C2.34 2.495 1.68 2.99 1 3.5 C-1.8827217 7.10340212 -1.30200997 9.46985042 -1 14 C-2.32 14 -3.64 14 -5 14 C-4.88490339 12.58249437 -4.75746342 11.16598831 -4.625 9.75 C-4.55539063 8.96109375 -4.48578125 8.1721875 -4.4140625 7.359375 C-3.9787895 4.87914019 -3.31630309 3.14017625 -2 1 C-1.34 0.67 -0.68 0.34 0 0 Z " fill="#2B343C" transform="translate(212,26)"/>
<path d="M0 0 C0.99 0 1.98 0 3 0 C2.06916801 4.18874395 1.08035356 7.91964644 -2 11 C-3.25 8.875 -3.25 8.875 -4 6 C-2.3125 2.6875 -2.3125 2.6875 0 0 Z " fill="#2A333A" transform="translate(205,42)"/>
<path d="M0 0 C0.99 0 1.98 0 3 0 C5.67927341 4.01891012 5.15601248 6.24161923 5 11 C4.34 10.01 3.68 9.02 3 8 C2.34 9.32 1.68 10.64 1 12 C0.67 8.04 0.34 4.08 0 0 Z " fill="#2D373E" transform="translate(115,130)"/>
<path d="M0 0 C0.33 0.66 0.66 1.32 1 2 C-1.97 6.455 -1.97 6.455 -5 11 C-5.66 10.01 -6.32 9.02 -7 8 C-8.32 8.33 -9.64 8.66 -11 9 C-10.01 7.35 -9.02 5.7 -8 4 C-6.68 4.66 -5.36 5.32 -4 6 C-2.68 4.02 -1.36 2.04 0 0 Z " fill="#1D83B8" transform="translate(60,130)"/>
<path d="M0 0 C0.66 0.66 1.32 1.32 2 2 C1.34 3.32 0.68 4.64 0 6 C-0.66 6 -1.32 6 -2 6 C-2.33 6.66 -2.66 7.32 -3 8 C-4.32 7.67 -5.64 7.34 -7 7 C-4.66666667 4.66666667 -2.33333333 2.33333333 0 0 Z " fill="#262F36" transform="translate(102,61)"/>
<path d="M0 0 C2 3 2 3 1.8125 5.125 C1.544375 5.74375 1.27625 6.3625 1 7 C0.01 7.33 -0.98 7.66 -2 8 C-2.66 7.34 -3.32 6.68 -4 6 C-3.625 3.875 -3.625 3.875 -3 2 C-2.34 2 -1.68 2 -1 2 C-0.67 1.34 -0.34 0.68 0 0 Z " fill="#2992C9" transform="translate(45,146)"/>
<path d="M0 0 C2.44323037 2.44323037 2.68989682 3.588865 3 7 C2.0625 10.3125 2.0625 10.3125 1 13 C0.34 12.34 -0.32 11.68 -1 11 C-0.9765625 8.3984375 -0.9765625 8.3984375 -0.625 5.375 C-0.51414062 4.37210938 -0.40328125 3.36921875 -0.2890625 2.3359375 C-0.19367188 1.56507813 -0.09828125 0.79421875 0 0 Z " fill="#E5B080" transform="translate(122,130)"/>
<path d="M0 0 C2 3 2 3 2 5 C-1.64160808 6.21386936 -2.33165469 5.6674695 -5.6875 4.0625 C-6.89986328 3.49208984 -6.89986328 3.49208984 -8.13671875 2.91015625 C-8.75160156 2.60980469 -9.36648437 2.30945313 -10 2 C-7.06156148 0.53078074 -4.24602179 1 -1 1 C-0.67 0.67 -0.34 0.34 0 0 Z " fill="#1A2128" transform="translate(188,66)"/>
<path d="M0 0 C0.66 0 1.32 0 2 0 C2.33 1.32 2.66 2.64 3 4 C2.01 4.33 1.02 4.66 0 5 C-0.33 5.99 -0.66 6.98 -1 8 C-1.99 8.33 -2.98 8.66 -4 9 C-4.33 7.68 -4.66 6.36 -5 5 C-4.34 5 -3.68 5 -3 5 C-2.505 4.175 -2.01 3.35 -1.5 2.5 C-1.005 1.675 -0.51 0.85 0 0 Z " fill="#303940" transform="translate(84,66)"/>
<path d="M0 0 C2.375 -0.125 2.375 -0.125 5 0 C7 2 7 2 7 5 C5.02 5 3.04 5 1 5 C0.67 4.34 0.34 3.68 0 3 C0.66 2.67 1.32 2.34 2 2 C1.34 1.34 0.68 0.68 0 0 Z " fill="#181E26" transform="translate(122,154)"/>
<path d="M0 0 C2.25998595 3.59462331 2.20868087 6.56595675 2.125 10.75 C2.10695312 11.92046875 2.08890625 13.0909375 2.0703125 14.296875 C2.03550781 15.63492188 2.03550781 15.63492188 2 17 C1.67 17 1.34 17 1 17 C1 14.03 1 11.06 1 8 C0.34 8 -0.32 8 -1 8 C-0.67 5.36 -0.34 2.72 0 0 Z " fill="#141A20" transform="translate(242,124)"/>
<path d="M0 0 C0.99 0.99 1.98 1.98 3 3 C2.01 3 1.02 3 0 3 C0 4.65 0 6.3 0 8 C-1.32 7.67 -2.64 7.34 -4 7 C-3.6875 4.625 -3.6875 4.625 -3 2 C-2.01 1.34 -1.02 0.68 0 0 Z " fill="#262E34" transform="translate(73,78)"/>
<path d="M0 0 C0.99 0 1.98 0 3 0 C4.30765478 3.92296433 4.1971417 6.86002433 4 11 C3.34 11.66 2.68 12.32 2 13 C1.67 12.01 1.34 11.02 1 10 C1.66 10 2.32 10 3 10 C2.01 6.7 1.02 3.4 0 0 Z " fill="#2A343B" transform="translate(98,70)"/>
<path d="M0 0 C0.66 0.99 1.32 1.98 2 3 C-1.465 4.485 -1.465 4.485 -5 6 C-5.33 4.68 -5.66 3.36 -6 2 C-4.02 1.34 -2.04 0.68 0 0 Z " fill="#2C93C8" transform="translate(36,157)"/>
<path d="M0 0 C-0.3125 1.875 -0.3125 1.875 -1 4 C-1.99 4.66 -2.98 5.32 -4 6 C-4.66 5.67 -5.32 5.34 -6 5 C-6 4.34 -6 3.68 -6 3 C-6.66 2.67 -7.32 2.34 -8 2 C-5.09399739 0.74335022 -3.20395416 0 0 0 Z " fill="#F0F4F4" transform="translate(41,148)"/>
<path d="M0 0 C4.875 4.75 4.875 4.75 6 7 C5.34 7.66 4.68 8.32 4 9 C3.67 8.01 3.34 7.02 3 6 C2.34 6 1.68 6 1 6 C0.34 4.35 -0.32 2.7 -1 1 C-0.67 0.67 -0.34 0.34 0 0 Z " fill="#2B343B" transform="translate(160,47)"/>
<path d="M0 0 C1.76462683 3.08809695 2 4.23312136 2 8 C0.02 8 -1.96 8 -4 8 C-2.87548273 5.0280615 -1.77706209 2.66559313 0 0 Z " fill="#181F24" transform="translate(201,46)"/>
<path d="M0 0 C0.99 0.33 1.98 0.66 3 1 C1.68 2.32 0.36 3.64 -1 5 C-1 2 -1 2 0 0 Z M-3 5 C-2.34 5.66 -1.68 6.32 -1 7 C-1.66 7.66 -2.32 8.32 -3 9 C-3 7.68 -3 6.36 -3 5 Z M-5 8 C-5 11 -5 11 -5 11 Z " fill="#EDEEEF" transform="translate(209,44)"/>
<path d="M0 0 C0.33 1.32 0.66 2.64 1 4 C2.32 3.34 3.64 2.68 5 2 C4.34 3.65 3.68 5.3 3 7 C1.02 6.34 -0.96 5.68 -3 5 C-2.01 3.35 -1.02 1.7 0 0 Z " fill="#1C86BF" transform="translate(60,122)"/>
<path d="M0 0 C4.75 0.75 4.75 0.75 7 3 C4.36 3.33 1.72 3.66 -1 4 C-0.67 2.68 -0.34 1.36 0 0 Z M6 0 C6.66 0 7.32 0 8 0 C7.67 0.66 7.34 1.32 7 2 C6.67 1.34 6.34 0.68 6 0 Z " fill="#2595CF" transform="translate(75,111)"/>
<path d="M0 0 C0.99 0.33 1.98 0.66 3 1 C2 4 2 4 -0.0625 5.1875 C-0.701875 5.455625 -1.34125 5.72375 -2 6 C-2.33 4.68 -2.66 3.36 -3 2 C-2.01 1.34 -1.02 0.68 0 0 Z " fill="#272F35" transform="translate(63,85)"/>
<path d="M0 0 C2 2 2 2 2.125 5.125 C2.08375 6.07375 2.0425 7.0225 2 8 C1.01 8.495 1.01 8.495 0 9 C-0.33 7.68 -0.66 6.36 -1 5 C-1.99 5.495 -1.99 5.495 -3 6 C-1.125 1.125 -1.125 1.125 0 0 Z " fill="#171D23" transform="translate(192,60)"/>
<path d="M0 0 C2.31 0.33 4.62 0.66 7 1 C4.23776722 3.76223278 1.79293383 3.57856291 -2 4 C-1.34 2.68 -0.68 1.36 0 0 Z " fill="#2B3238" transform="translate(196,53)"/>
<path d="M0 0 C0.66 0.99 1.32 1.98 2 3 C0.02 4.32 -1.96 5.64 -4 7 C-4.66 6.67 -5.32 6.34 -6 6 C-4.02 4.02 -2.04 2.04 0 0 Z " fill="#DEE0E2" transform="translate(234,178)"/>
<path d="M0 0 C0.33 1.32 0.66 2.64 1 4 C-0.1446875 4.680625 -0.1446875 4.680625 -1.3125 5.375 C-3.23632814 6.53824492 -5.12941224 7.7529415 -7 9 C-5.44499019 5.18315774 -2.96404505 2.80804268 0 0 Z " fill="#11161B" transform="translate(114,46)"/>
<path d="M0 0 C1.98 0 3.96 0 6 0 C6.33 0.99 6.66 1.98 7 3 C4.69 3 2.38 3 0 3 C0 2.01 0 1.02 0 0 Z " fill="#2B353C" transform="translate(213,42)"/>
<path d="M0 0 C0.66 0.66 1.32 1.32 2 2 C0.125 3.0625 0.125 3.0625 -2 4 C-2.66 3.67 -3.32 3.34 -4 3 C-2.68 2.01 -1.36 1.02 0 0 Z M-4 4 C-4.33 4.99 -4.66 5.98 -5 7 C-5.99 6.34 -6.98 5.68 -8 5 C-6 4 -6 4 -4 4 Z " fill="#EEEFF0" transform="translate(222,189)"/>
<path d="M0 0 C2.1875 0.3125 2.1875 0.3125 4 1 C3.67 1.99 3.34 2.98 3 4 C1.35 4.33 -0.3 4.66 -2 5 C-2.33 4.34 -2.66 3.68 -3 3 C-1.75 1.4375 -1.75 1.4375 0 0 Z " fill="#2A343C" transform="translate(111,166)"/>
<path d="M0 0 C0.99 0 1.98 0 3 0 C3.33 3.3 3.66 6.6 4 10 C1.04816899 7.04816899 0.91336012 4.04488053 0 0 Z " fill="#1E2227" transform="translate(226,90)"/>
<path d="M0 0 C0.33 0.99 0.66 1.98 1 3 C-0.32 4.32 -1.64 5.64 -3 7 C-3.99 6.67 -4.98 6.34 -6 6 C-4.02 4.02 -2.04 2.04 0 0 Z " fill="#E3E4E5" transform="translate(123,44)"/>
<path d="M0 0 C2.31 0.33 4.62 0.66 7 1 C7.33 1.99 7.66 2.98 8 4 C6.68 4 5.36 4 4 4 C4 3.34 4 2.68 4 2 C2.68 1.34 1.36 0.68 0 0 Z " fill="#43403E" transform="translate(162,171)"/>
<path d="M0 0 C-0.33 0.99 -0.66 1.98 -1 3 C-3.875 3.125 -3.875 3.125 -7 3 C-7.66 2.34 -8.32 1.68 -9 1 C-6.04335481 -0.4783226 -3.25770263 -0.06032783 0 0 Z " fill="#2E373D" transform="translate(140,35)"/>
</svg>
